<svg width="301" height="26.3" xmlns="http://www.w3.org/2000/svg">

 <g>
  <title>background</title>
  <rect fill="none" id="canvas_background" height="402" width="582" y="-1" x="-1"/>
 </g>
 <g>
  <title>Layer 1</title>
  <g id="svg_1" fill="#0b3f6d">
   <path fill="#ffffff" id="svg_2" d="m73.2,22.7l0,-0.4l2.2,-1.1l0,-14.6l-2.2,-1.1l0,-0.4l7.5,0c2.1,0 3.8,0.4 5.1,1.1c1.3,0.8 1.9,2 1.9,3.6c0,1 -0.3,1.8 -1,2.6s-1.6,1.4 -2.7,1.8s-2.4,0.7 -3.9,0.7l-1.9,0l0,6.3l2.5,1.1l0,0.4l-7.5,0zm5,-16.1l0,6.9l2,0c1.4,0 2.5,-0.3 3.3,-1c0.8,-0.6 1.2,-1.5 1.2,-2.5c0,-1.2 -0.4,-2.1 -1.2,-2.7s-2,-0.8 -3.5,-0.8l-1.8,0l0,0.1z"/>
   <path fill="#ffffff" id="svg_3" d="m87.2,22.7l0,-0.4l1.4,-0.7l5.9,-13.9l1.4,0l5.9,13.9l1.6,0.8l0,0.4l-6.2,0l0,-0.4l1.9,-0.8l-1.7,-3.9l-5.5,0l-1.6,4l1.9,0.7l0,0.4l-5,0l0,-0.1zm5.2,-6.5l4.4,0l-2.2,-5.3l-2.2,5.3z"/>
   <path fill="#ffffff" id="svg_4" d="m104.7,22.7l0,-0.4l1.9,-0.9l0,-12.3l-1.9,-0.9l0,-0.4l6.5,0c1.6,0 2.9,0.3 3.9,1s1.4,1.6 1.4,2.8c0,0.9 -0.3,1.6 -0.8,2.2s-1.3,1.1 -2.3,1.5l4.1,6.3l1.8,0.8l0,0.4l-4.2,0l-4.2,-6.8l-1.6,0l0,5.5l1.8,0.9l0,0.4l-6.4,0l0,-0.1zm5.8,-13.6l-1.3,0l0,5.5l1.4,0c1,0 1.7,-0.2 2.3,-0.7s0.8,-1.2 0.8,-2c0,-0.9 -0.3,-1.6 -0.8,-2.1c-0.6,-0.5 -1.4,-0.7 -2.4,-0.7z"/>
   <path fill="#ffffff" id="svg_5" d="m122.3,22.7l0,-0.4l2.4,-0.9l0,-12.3l-3.9,0l-1.4,3.3l-0.4,0l0,-4.6l14.2,0l0,4.6l-0.4,0l-1.4,-3.3l-3.9,0l0,12.3l2.4,0.9l0,0.4l-7.6,0z"/>
   <path fill="#ffffff" id="svg_6" d="m134.7,22.7l0,-0.4l1.9,-0.9l0,-12.3l-1.9,-0.9l0,-0.4l4,0l9,10.7l0,-9.4l-2.3,-0.9l0,-0.4l5.7,0l0,0.4l-1.9,0.9l0,13.8l-1.2,0l-9.8,-11.6l0,10.1l2.4,1l0,0.4l-5.9,0l0,-0.1z"/>
   <path fill="#ffffff" id="svg_7" d="m152.8,22.7l0,-0.4l1.9,-0.9l0,-12.3l-1.9,-0.9l0,-0.4l11.7,0l0,3.8l-0.4,0l-1.4,-2.5l-5.4,0l0,5.2l3.9,0l0.9,-1.8l0.4,0l0,5l-0.4,0l-0.9,-1.8l-3.9,0l0,5.7l5.9,0l1.5,-3l0.4,0l0,4.3l-12.3,0z"/>
   <path fill="#ffffff" id="svg_8" d="m167.5,22.7l0,-0.4l1.9,-0.9l0,-12.3l-1.9,-0.9l0,-0.4l6.5,0c1.6,0 2.9,0.3 3.9,1s1.4,1.6 1.4,2.8c0,0.9 -0.3,1.6 -0.8,2.2s-1.3,1.1 -2.3,1.5l4.1,6.3l1.8,0.8l0,0.4l-4.2,0l-4.2,-6.8l-1.6,0l0,5.5l1.8,0.9l0,0.4l-6.4,0l0,-0.1zm5.8,-13.6l-1.3,0l0,5.5l1.4,0c1,0 1.7,-0.2 2.3,-0.7c0.5,-0.5 0.8,-1.2 0.8,-2c0,-0.9 -0.3,-1.6 -0.8,-2.1c-0.6,-0.5 -1.4,-0.7 -2.4,-0.7z"/>
   <path fill="#ffffff" id="svg_9" d="m187.2,23c-1,0 -1.8,-0.1 -2.5,-0.3s-1.4,-0.5 -2.1,-0.8l-0.2,-3.6l0.4,0l1.4,2.5c0.5,0.4 1,0.6 1.5,0.8c0.5,0.1 1.1,0.2 1.6,0.2c1,0 1.7,-0.2 2.3,-0.6s0.8,-1 0.8,-1.8c0,-0.6 -0.2,-1.1 -0.5,-1.4s-0.8,-0.7 -1.4,-0.9c-0.6,-0.3 -1.4,-0.7 -2.4,-1.1c-1.1,-0.5 -1.9,-1.1 -2.4,-1.7s-0.7,-1.4 -0.7,-2.3c0,-0.8 0.2,-1.5 0.7,-2.2s1.1,-1.2 1.8,-1.6s1.6,-0.6 2.5,-0.6c0.8,0 1.5,0.1 2.1,0.3s1.3,0.4 1.8,0.7l0.2,3.5l-0.4,0l-1.2,-2.3c-0.7,-0.6 -1.5,-0.9 -2.5,-0.9c-0.9,0 -1.5,0.2 -2,0.6s-0.7,1 -0.7,1.7c0,0.5 0.1,0.8 0.3,1.2c0.2,0.3 0.6,0.6 1.1,0.9s1.1,0.6 1.9,1c1,0.5 1.8,0.9 2.4,1.3s1,0.9 1.3,1.4s0.4,1.1 0.4,1.9s-0.2,1.6 -0.7,2.2s-1.1,1.1 -1.9,1.5c-0.9,0.2 -1.8,0.4 -2.9,0.4z"/>
   <path fill="#ffffff" id="svg_10" d="m209.3,23c-1.8,0 -3.4,-0.4 -4.7,-1.1s-2.4,-1.8 -3.1,-3.1s-1.1,-2.8 -1.1,-4.4c0,-1.3 0.2,-2.5 0.7,-3.6s1.2,-2.2 2,-3c0.9,-0.9 1.9,-1.6 3,-2.1s2.3,-0.8 3.6,-0.8c0.9,0 1.7,0.1 2.3,0.2s1.2,0.3 1.7,0.5s1,0.4 1.5,0.7l0.2,4.7l-0.5,0l-1.8,-3.5c-0.6,-0.4 -1.2,-0.7 -1.6,-0.9c-0.5,-0.2 -1,-0.3 -1.6,-0.3c-1.2,0 -2.3,0.3 -3.3,1c-1,0.6 -1.7,1.5 -2.3,2.7c-0.6,1.1 -0.8,2.4 -0.8,3.9c0,1.7 0.3,3.1 0.8,4.3s1.3,2.1 2.2,2.7s1.9,0.9 3.1,0.9c0.9,0 1.7,-0.1 2.3,-0.4c0.6,-0.2 1.2,-0.5 1.7,-0.9l1.8,-3l0.5,0l-0.3,4.3c-0.8,0.4 -1.6,0.7 -2.5,1c-1.3,0 -2.4,0.2 -3.8,0.2z"/>
   <path fill="#ffffff" id="svg_11" d="m217.1,22.7l0,-0.4l1.4,-0.7l5.9,-13.9l1.4,0l5.9,13.9l1.6,0.8l0,0.4l-6.3,0l0,-0.4l1.9,-0.8l-1.7,-3.9l-5.5,0l-1.6,4l1.9,0.7l0,0.4l-4.9,0l0,-0.1zm5.2,-6.5l4.4,0l-2.2,-5.3l-2.2,5.3z"/>
   <path fill="#ffffff" id="svg_12" d="m234.6,22.7l0,-0.4l1.9,-0.9l0,-12.3l-1.9,-0.9l0,-0.4l6.4,0c2,0 3.5,0.3 4.5,1s1.5,1.7 1.5,3.2c0,0.9 -0.3,1.7 -0.8,2.3c-0.6,0.7 -1.3,1.2 -2.3,1.5s-2.1,0.5 -3.3,0.5l-1.5,0l0,5.1l2.2,0.9l0,0.4l-6.7,0zm4.6,-13.6l0,5.9l1.3,0c1.2,0 2.1,-0.3 2.8,-0.8s1,-1.3 1,-2.2c0,-1 -0.4,-1.8 -1.1,-2.3s-1.7,-0.7 -3,-0.7l-1,0l0,0.1z"/>
   <path fill="#ffffff" id="svg_13" d="m249,22.7l0,-0.4l1.8,-0.9l0,-12.3l-1.8,-0.9l0,-0.4l6.3,0l0,0.4l-1.8,0.9l0,12.3l1.8,0.9l0,0.4l-6.3,0z"/>
   <path fill="#ffffff" id="svg_14" d="m260.4,22.7l0,-0.4l2.4,-0.9l0,-12.3l-3.9,0l-1.4,3.3l-0.5,0l0,-4.6l14.2,0l0,4.6l-0.4,0l-1.4,-3.3l-3.9,0l0,12.3l2.4,0.9l0,0.4l-7.5,0z"/>
   <path fill="#ffffff" id="svg_15" d="m271.3,22.7l0,-0.4l1.4,-0.7l5.9,-13.9l1.4,0l5.9,13.9l1.6,0.8l0,0.4l-6.2,0l0,-0.4l1.9,-0.8l-1.7,-3.9l-5.5,0l-1.6,4l1.9,0.7l0,0.4l-5,0l0,-0.1zm5.2,-6.5l4.4,0l-2.2,-5.3l-2.2,5.3z"/>
   <path fill="#ffffff" id="svg_16" d="m288.7,22.7l0,-0.4l1.9,-0.9l0,-12.3l-1.9,-0.9l0,-0.4l6.7,0l0,0.4l-2.2,0.9l0,12.3l5.6,0l1.7,-3.9l0.4,0l0,5.3l-12.2,0l0,-0.1z"/>
  </g>
  <path id="svg_17" fill="#ffffff" d="m25.7,5c-1.5,0.6 -2.2,1.7 -2.3,3.2c0,0.3 -0.3,0.6 -0.5,0.8c-0.8,0.8 -1.5,1.6 -2.3,2.3c0,0.1 0.1,0.1 0.1,0.2l1.5,0c-0.2,0.4 -0.2,0.7 -0.4,1c-0.7,1.2 -1.6,2.4 -2.3,3.6c-1.2,2.1 -1.3,3.2 -1.1,5.5c-1.4,0 -1.9,-0.6 -2,-2.4c-0.8,0.1 -1,0.3 -1.8,1.7c-0.8,-0.3 -1.1,-1 -1.1,-1.7c0,-1.1 0.1,-2.2 0.2,-3.4c-0.8,0 -1.4,0.6 -2.1,1.1c-0.7,-1.6 -0.9,-3.3 -1,-5.1c-1.1,1 -1.8,2.1 -1.9,3.6c-0.1,2.9 1.1,5.3 3.5,7c0.1,0 0.1,0.1 0.2,0.2c0,0 0,0 0.1,0.1c-1.3,1.1 -2.8,1.4 -4.4,1.3c-3.9,-0.3 -7.1,-3.1 -7.8,-7c-0.1,-0.5 -0.1,-1.1 0.1,-1.6c1.8,-5.1 4.4,-9.6 8.7,-13c2.5,-2 5.3,-2.5 8.3,-2.1c3.3,0.4 6,1.8 8,4.5c0.2,-0.1 0.2,0 0.3,0.2zm-4.3,2c-0.5,1.4 -1.2,2 -2.3,1.9c-0.9,0 -1.8,-0.7 -1.9,-1.6c-0.1,-0.5 0,-1.2 0.3,-1.6s0.8,-0.7 1.2,-1c-1.2,-0.4 -2.8,0 -3.8,1c-0.8,0.7 -1.5,2.4 -1.1,3.5c0.5,-1 1.2,-1.3 2.3,-0.9c0.4,0.1 0.8,0.3 1.2,0.5c1.6,0.9 3.1,0.5 4.7,-0.2c-0.2,-0.6 -0.4,-1 -0.6,-1.6zm-1.5,0.9c0.7,-0.3 0.8,-0.6 0.5,-1.2c-0.2,0.4 -0.4,0.8 -0.5,1.2z"/>
  <path id="svg_18" fill="#ffffff" d="m50.3,19.4c1.9,-0.2 4.7,-1.4 7.6,-3.1c-0.4,0.5 -0.8,1.1 -1.2,1.7c2.3,-0.9 4.3,-2.1 6.1,-3.7c-0.2,1.1 -2.9,3.6 -5.2,5c-2.1,1.3 -4.4,2.1 -6.8,2.6l0,0.2c2.2,-0.4 4.3,-0.8 6.6,-1.1c-2.2,2.5 -5.3,2.7 -8.2,3.2l3.7,0c0,0.1 0.1,0.1 0.1,0.2c-0.4,0.3 -0.7,0.6 -1.1,0.9c-1,0.6 -2.1,0.9 -3.2,0.9c-8.2,0 -16.3,0 -24.5,0c-0.1,0 -0.2,0 -0.4,0c0.6,-2.2 0.2,-4.4 -0.2,-6.5c0,0 0,0 0,-0.1c-0.2,-1.7 -0.2,-1.9 1.4,-2.6c1.1,-0.5 2.4,-0.8 3.6,-1.1c1.8,-0.5 3.5,-0.9 5.3,-1.4c-0.2,0.3 -0.5,0.6 -0.8,0.9c0.9,0.2 2.7,-0.4 5,-1.8c-0.3,1.1 -1.7,1.8 -5.2,2.7c1.2,0.2 2.3,0.3 3.4,0.5c2.2,0.4 4.4,0.8 6.6,1.2c2.5,0.5 4.7,-0.1 6.8,-1.3c0.2,-0.1 0.4,-0.2 0.5,-0.3l0.2,0c-0.2,0.5 -0.4,0.9 -0.6,1.3c2.1,-0.7 3.9,-1.9 5.7,-3.2c-1.1,2.1 -2.8,3.8 -5.2,4.9z"/>
  <path id="svg_19" fill="#ffffff" d="m27.5,12.1c-0.4,0.1 -0.9,0.2 -1.3,0.2c-0.7,0.1 -1.3,0.3 -1.8,1c-1.5,2.4 -1.8,4.9 -1.2,7.6c0.3,1.4 0.4,2.8 0.2,4.2c0,0.3 -0.1,0.5 -0.2,0.8c-2.8,-1.8 -3.8,-5.2 -2.6,-8.5c0.9,-2.4 2.5,-4.3 4.4,-6c0.6,-0.6 2.3,-0.1 2.5,0.7z"/>
  <path id="svg_20" fill="#ffffff" d="m0,18.2c0.5,1 1,2.1 1.6,3c1.7,2.5 4.1,3.9 7.3,3.9c1.2,0 2.3,-0.4 3.5,-0.5c3.1,-0.4 6.1,-0.2 9,0.7c0.4,0.1 0.7,0.3 1.1,0.4c0.1,0 0.2,0.1 0.4,0.2c-1.5,-0.2 -2.9,-0.3 -4.3,-0.4c-2.9,-0.3 -5.8,0 -8.7,0.6c-2.2,0.4 -4.3,0.4 -6.3,-1c-2.1,-1.5 -3.4,-3.5 -3.6,-6.1c0,-0.3 0,-0.5 0,-0.8z"/>
  <path id="svg_21" fill="#ffffff" d="m23.9,10.7c0,-0.9 0,-0.9 1.4,-2.1c-0.6,-0.2 -1,-0.6 -0.8,-1.2c0.1,-0.3 0.5,-0.5 0.8,-0.6c0.6,-0.1 0.8,0.3 1,0.9c0.2,-0.5 0.4,-0.9 0.7,-1.5c1.3,0.8 2.7,1.6 3.1,3.3c0.4,1.5 0.4,3.1 -0.8,4.4c-0.1,-0.2 -0.1,-0.4 -0.2,-0.5c-0.3,-0.6 -0.5,-1.3 -0.8,-1.8c-0.4,-0.7 -1.1,-1 -1.9,-1c-0.8,0.1 -1.7,0.1 -2.5,0.1zm5.6,2.3c0.9,-1.6 0.5,-4.3 -1.8,-5.6c1.8,1.4 2.2,3.3 1.8,5.6z"/>
 </g>
</svg>